<?xml version="1.0" encoding="utf-8"?>
<!-- Generator: Adobe Illustrator 19.2.1, SVG Export Plug-In . SVG Version: 6.00 Build 0)  -->
<!DOCTYPE svg PUBLIC "-//W3C//DTD SVG 1.1//EN" "http://www.w3.org/Graphics/SVG/1.1/DTD/svg11.dtd">
<svg version="1.1" id="Layer_1" xmlns="http://www.w3.org/2000/svg" xmlns:xlink="http://www.w3.org/1999/xlink" x="0px" y="0px"
	 viewBox="0 0 73.9 66.9" enable-background="new 0 0 73.9 66.9" xml:space="preserve">
<g>
	<path d="M45.9,51h-8.7V31.6l-6.3,15.3h-5.5l-6.3-15.3V51h-8.5V17.4h10.2L28.3,35l7.5-17.7h10.1V51z"/>
	<path d="M55.6,18.5h-5.6v-2.5c0-2.5,1.3-3.8,3.8-3.8h7.9c2.5,0,3.8,1.3,3.8,3.8v3.9c0,2.2-1.3,3.1-4.2,3.9L56,25.2
		c-0.3,0.1-0.4,0.2-0.4,0.5v0.9h10.1v5H49.8v-7.1c0-2.2,1.2-3.1,4.2-3.9l5.4-1.5c0.3-0.1,0.4-0.2,0.4-0.5v-1.2
		c0-0.4-0.1-0.5-0.5-0.5h-3.3c-0.4,0-0.5,0.1-0.5,0.5V18.5z"/>
</g>
<rect x="2.6" y="2.6" fill="none" stroke="#000000" stroke-width="5.2762" stroke-miterlimit="10" width="68.7" height="61.7"/>
</svg>
